<mxfile host="app.diagrams.net" modified="2021-04-26T16:14:12.979Z" agent="5.0 (X11; Linux x86_64) AppleWebKit/537.36 (KHTML, like Gecko) Chrome/87.0.4280.141 Safari/537.36" etag="wfyFLqiXnnz07ah7LzJW" version="14.6.6" type="github">
  <diagram id="6333bc04-1a10-ea54-7f5b-857ec1999d3b" name="Page-1">
    <mxGraphModel dx="1588" dy="911" grid="1" gridSize="10" guides="1" tooltips="1" connect="1" arrows="1" fold="1" page="1" pageScale="1" pageWidth="1100" pageHeight="850" background="#ffffff" math="0" shadow="0">
      <root>
        <mxCell id="0" />
        <mxCell id="1" parent="0" />
        <mxCell id="4RCNO5_tVw8vB9OJC3BB-47" value="" style="shape=folder;fontStyle=1;spacingTop=10;tabWidth=40;tabHeight=14;tabPosition=left;html=1;" parent="1" vertex="1">
          <mxGeometry x="700" y="60" width="570" height="540" as="geometry" />
        </mxCell>
        <mxCell id="2" value="" style="shape=folder;fontStyle=1;spacingTop=10;tabWidth=40;tabHeight=14;tabPosition=left;html=1;fillColor=#ffffff;strokeColor=#000000;direction=east;" parent="1" vertex="1">
          <mxGeometry x="110" y="60" width="530" height="540" as="geometry" />
        </mxCell>
        <mxCell id="15" value="Server&#xa;(backend)" style="text;align=center;fontStyle=1;verticalAlign=middle;spacingLeft=3;spacingRight=3;strokeColor=none;rotatable=0;points=[[0,0.5],[1,0.5]];portConstraint=eastwest;fontSize=23;fillColor=#ffffff;fontColor=#990000;" parent="1" vertex="1">
          <mxGeometry x="740" y="105.5" width="111" height="60" as="geometry" />
        </mxCell>
        <mxCell id="16" value="Web client&#xa;(frontend)" style="text;align=center;fontStyle=1;verticalAlign=middle;spacingLeft=3;spacingRight=3;strokeColor=none;rotatable=0;points=[[0,0.5],[1,0.5]];portConstraint=eastwest;fontSize=23;fontColor=#990000;" parent="1" vertex="1">
          <mxGeometry x="150" y="110" width="95" height="51" as="geometry" />
        </mxCell>
        <mxCell id="17" value="&lt;p style=&quot;margin: 0px ; margin-top: 6px ; text-align: center&quot;&gt;&lt;b&gt;&lt;font style=&quot;font-size: 23px ; line-height: 250%&quot;&gt;Service&lt;/font&gt;&lt;/b&gt;&lt;/p&gt;" style="align=left;overflow=fill;html=1;fontSize=14;fillColor=#ffe6cc;strokeColor=#d79b00;" parent="1" vertex="1">
          <mxGeometry x="450" y="195" width="140" height="67" as="geometry" />
        </mxCell>
        <mxCell id="18" value="" style="shape=component;jettyWidth=8;jettyHeight=4;" parent="17" vertex="1">
          <mxGeometry x="1" width="20" height="20" relative="1" as="geometry">
            <mxPoint x="-24" y="4" as="offset" />
          </mxGeometry>
        </mxCell>
        <mxCell id="19" value="&lt;p style=&quot;margin: 0px ; margin-top: 6px ; text-align: center&quot;&gt;&lt;b style=&quot;line-height: 250%&quot;&gt;&lt;font style=&quot;font-size: 23px ; line-height: 250%&quot;&gt;Controller&lt;/font&gt;&lt;/b&gt;&lt;/p&gt;" style="align=left;overflow=fill;html=1;fontSize=14;fillColor=#ffe6cc;strokeColor=#d79b00;" parent="1" vertex="1">
          <mxGeometry x="450" y="318.5" width="140" height="70" as="geometry" />
        </mxCell>
        <mxCell id="20" value="" style="shape=component;jettyWidth=8;jettyHeight=4;" parent="19" vertex="1">
          <mxGeometry x="1" width="20" height="20" relative="1" as="geometry">
            <mxPoint x="-24" y="4" as="offset" />
          </mxGeometry>
        </mxCell>
        <mxCell id="21" value="&lt;p style=&quot;margin: 0px ; margin-top: 6px ; text-align: center&quot;&gt;&lt;b&gt;&lt;font style=&quot;font-size: 23px ; line-height: 250%&quot;&gt;View&lt;/font&gt;&lt;/b&gt;&lt;/p&gt;" style="align=left;overflow=fill;html=1;fontSize=14;fillColor=#ffe6cc;strokeColor=#d79b00;" parent="1" vertex="1">
          <mxGeometry x="450" y="448.5" width="140" height="70" as="geometry" />
        </mxCell>
        <mxCell id="22" value="" style="shape=component;jettyWidth=8;jettyHeight=4;" parent="21" vertex="1">
          <mxGeometry x="1" width="20" height="20" relative="1" as="geometry">
            <mxPoint x="-24" y="4" as="offset" />
          </mxGeometry>
        </mxCell>
        <mxCell id="23" value="" style="endArrow=open;endSize=12;dashed=1;html=1;exitX=0.5;exitY=0;entryX=0.5;entryY=1;" parent="1" source="19" target="17" edge="1">
          <mxGeometry width="160" relative="1" as="geometry">
            <mxPoint x="1025" y="358.5" as="sourcePoint" />
            <mxPoint x="1030" y="318.5" as="targetPoint" />
            <Array as="points" />
          </mxGeometry>
        </mxCell>
        <mxCell id="24" value="" style="endArrow=open;endSize=12;dashed=1;html=1;exitX=0.5;exitY=0;entryX=0.5;entryY=1;" parent="1" source="21" target="19" edge="1">
          <mxGeometry width="160" relative="1" as="geometry">
            <mxPoint x="530" y="401.5" as="sourcePoint" />
            <mxPoint x="530" y="345.5" as="targetPoint" />
            <Array as="points" />
          </mxGeometry>
        </mxCell>
        <mxCell id="4RCNO5_tVw8vB9OJC3BB-48" value="&lt;p style=&quot;text-align: center ; margin: 6px 0px 0px ; font-size: 23px&quot;&gt;&lt;b&gt;&lt;font style=&quot;font-size: 23px ; line-height: 250%&quot;&gt;Model&lt;/font&gt;&lt;/b&gt;&lt;/p&gt;&lt;p style=&quot;text-align: center ; margin: 6px 0px 0px ; font-size: 23px&quot;&gt;&lt;b&gt;&lt;br&gt;&lt;/b&gt;&lt;/p&gt;" style="align=left;overflow=fill;html=1;fontSize=15;fillColor=#d5e8d4;strokeColor=#82b366;" parent="1" vertex="1">
          <mxGeometry x="770" y="508" width="120" height="70" as="geometry" />
        </mxCell>
        <mxCell id="4RCNO5_tVw8vB9OJC3BB-49" value="" style="shape=component;jettyWidth=8;jettyHeight=4;" parent="4RCNO5_tVw8vB9OJC3BB-48" vertex="1">
          <mxGeometry x="1" width="20" height="20" relative="1" as="geometry">
            <mxPoint x="-24" y="4" as="offset" />
          </mxGeometry>
        </mxCell>
        <mxCell id="4RCNO5_tVw8vB9OJC3BB-50" value="&lt;p style=&quot;margin: 0px ; margin-top: 6px ; text-align: center&quot;&gt;&lt;b&gt;&lt;font style=&quot;line-height: 250% ; font-size: 23px&quot;&gt;Repository&lt;/font&gt;&lt;/b&gt;&lt;/p&gt;" style="align=left;overflow=fill;html=1;fontSize=14;fillColor=#d5e8d4;strokeColor=#82b366;" parent="1" vertex="1">
          <mxGeometry x="758" y="398" width="145" height="70" as="geometry" />
        </mxCell>
        <mxCell id="4RCNO5_tVw8vB9OJC3BB-51" value="" style="shape=component;jettyWidth=8;jettyHeight=4;" parent="4RCNO5_tVw8vB9OJC3BB-50" vertex="1">
          <mxGeometry x="1" width="20" height="20" relative="1" as="geometry">
            <mxPoint x="-24" y="4" as="offset" />
          </mxGeometry>
        </mxCell>
        <mxCell id="4RCNO5_tVw8vB9OJC3BB-52" value="" style="endArrow=open;endSize=12;dashed=1;html=1;exitX=0.5;exitY=1;exitDx=0;exitDy=0;" parent="1" source="4RCNO5_tVw8vB9OJC3BB-50" target="4RCNO5_tVw8vB9OJC3BB-48" edge="1">
          <mxGeometry width="160" relative="1" as="geometry">
            <mxPoint x="760" y="554" as="sourcePoint" />
            <mxPoint x="760" y="508" as="targetPoint" />
            <Array as="points" />
          </mxGeometry>
        </mxCell>
        <mxCell id="4RCNO5_tVw8vB9OJC3BB-53" value="&lt;p style=&quot;margin: 0px ; margin-top: 6px ; text-align: center&quot;&gt;&lt;b&gt;&lt;font style=&quot;line-height: 250% ; font-size: 23px&quot;&gt;Service&lt;/font&gt;&lt;/b&gt;&lt;/p&gt;" style="align=left;overflow=fill;html=1;fontSize=14;fillColor=#d5e8d4;strokeColor=#82b366;" parent="1" vertex="1">
          <mxGeometry x="771" y="288" width="120" height="70" as="geometry" />
        </mxCell>
        <mxCell id="4RCNO5_tVw8vB9OJC3BB-54" value="" style="shape=component;jettyWidth=8;jettyHeight=4;" parent="4RCNO5_tVw8vB9OJC3BB-53" vertex="1">
          <mxGeometry x="1" width="20" height="20" relative="1" as="geometry">
            <mxPoint x="-24" y="4" as="offset" />
          </mxGeometry>
        </mxCell>
        <mxCell id="4RCNO5_tVw8vB9OJC3BB-57" value="" style="endArrow=open;endSize=12;dashed=1;html=1;exitX=0.5;exitY=1;exitDx=0;exitDy=0;entryX=0.5;entryY=0;entryDx=0;entryDy=0;" parent="1" source="4RCNO5_tVw8vB9OJC3BB-53" target="4RCNO5_tVw8vB9OJC3BB-50" edge="1">
          <mxGeometry width="160" relative="1" as="geometry">
            <mxPoint x="870" y="383" as="sourcePoint" />
            <mxPoint x="870" y="428" as="targetPoint" />
            <Array as="points" />
          </mxGeometry>
        </mxCell>
        <mxCell id="4RCNO5_tVw8vB9OJC3BB-58" value="&lt;p style=&quot;margin: 0px ; margin-top: 6px ; text-align: center&quot;&gt;&lt;b style=&quot;line-height: 250%&quot;&gt;&lt;font style=&quot;font-size: 23px&quot;&gt;API&lt;/font&gt;&lt;/b&gt;&lt;/p&gt;" style="align=left;overflow=fill;html=1;fontSize=14;fillColor=#d5e8d4;strokeColor=#82b366;" parent="1" vertex="1">
          <mxGeometry x="770" y="202.5" width="121" height="49" as="geometry" />
        </mxCell>
        <mxCell id="4RCNO5_tVw8vB9OJC3BB-59" value="" style="shape=component;jettyWidth=8;jettyHeight=4;" parent="4RCNO5_tVw8vB9OJC3BB-58" vertex="1">
          <mxGeometry x="1" width="20" height="20" relative="1" as="geometry">
            <mxPoint x="-24" y="4" as="offset" />
          </mxGeometry>
        </mxCell>
        <mxCell id="4RCNO5_tVw8vB9OJC3BB-60" value="" style="endArrow=open;endSize=12;dashed=1;html=1;exitX=0.5;exitY=1;exitDx=0;exitDy=0;entryX=0.5;entryY=0;entryDx=0;entryDy=0;" parent="1" source="4RCNO5_tVw8vB9OJC3BB-58" target="4RCNO5_tVw8vB9OJC3BB-53" edge="1">
          <mxGeometry width="160" relative="1" as="geometry">
            <mxPoint x="885" y="393" as="sourcePoint" />
            <mxPoint x="885" y="433" as="targetPoint" />
            <Array as="points" />
          </mxGeometry>
        </mxCell>
        <mxCell id="4RCNO5_tVw8vB9OJC3BB-61" value="&lt;p style=&quot;margin: 0px ; margin-top: 6px ; text-align: center&quot;&gt;&lt;b&gt;&lt;font style=&quot;line-height: 250% ; font-size: 23px&quot;&gt;Assembler&lt;/font&gt;&lt;/b&gt;&lt;/p&gt;" style="align=left;overflow=fill;html=1;fontSize=14;fillColor=#d5e8d4;strokeColor=#82b366;" parent="1" vertex="1">
          <mxGeometry x="950" y="192" width="130" height="70" as="geometry" />
        </mxCell>
        <mxCell id="4RCNO5_tVw8vB9OJC3BB-62" value="" style="shape=component;jettyWidth=8;jettyHeight=4;" parent="4RCNO5_tVw8vB9OJC3BB-61" vertex="1">
          <mxGeometry x="1" width="20" height="20" relative="1" as="geometry">
            <mxPoint x="-24" y="4" as="offset" />
          </mxGeometry>
        </mxCell>
        <mxCell id="4RCNO5_tVw8vB9OJC3BB-63" value="" style="endArrow=open;endSize=12;dashed=1;html=1;exitX=1;exitY=0.5;exitDx=0;exitDy=0;entryX=0;entryY=0.5;entryDx=0;entryDy=0;" parent="1" source="4RCNO5_tVw8vB9OJC3BB-58" target="4RCNO5_tVw8vB9OJC3BB-61" edge="1">
          <mxGeometry width="160" relative="1" as="geometry">
            <mxPoint x="885" y="277" as="sourcePoint" />
            <mxPoint x="885" y="323" as="targetPoint" />
            <Array as="points" />
          </mxGeometry>
        </mxCell>
        <mxCell id="4RCNO5_tVw8vB9OJC3BB-64" value="&lt;p style=&quot;text-align: center ; margin: 6px 0px 0px ; font-size: 23px&quot;&gt;&lt;b&gt;DTO&lt;/b&gt;&lt;/p&gt;" style="align=left;overflow=fill;html=1;fontSize=15;fillColor=#fff2cc;strokeColor=#d6b656;" parent="1" vertex="1">
          <mxGeometry x="1120" y="201.5" width="120" height="50" as="geometry" />
        </mxCell>
        <mxCell id="4RCNO5_tVw8vB9OJC3BB-65" value="" style="shape=component;jettyWidth=8;jettyHeight=4;" parent="4RCNO5_tVw8vB9OJC3BB-64" vertex="1">
          <mxGeometry x="1" width="20" height="20" relative="1" as="geometry">
            <mxPoint x="-24" y="4" as="offset" />
          </mxGeometry>
        </mxCell>
        <mxCell id="4RCNO5_tVw8vB9OJC3BB-67" value="" style="endArrow=open;endSize=12;dashed=1;html=1;entryX=0;entryY=0.5;entryDx=0;entryDy=0;exitX=1;exitY=0.5;exitDx=0;exitDy=0;" parent="1" source="4RCNO5_tVw8vB9OJC3BB-61" target="4RCNO5_tVw8vB9OJC3BB-64" edge="1">
          <mxGeometry width="160" relative="1" as="geometry">
            <mxPoint x="1100" y="228" as="sourcePoint" />
            <mxPoint x="980" y="237" as="targetPoint" />
            <Array as="points" />
          </mxGeometry>
        </mxCell>
        <mxCell id="4RCNO5_tVw8vB9OJC3BB-68" value="" style="endArrow=open;endSize=12;dashed=1;html=1;exitX=0.5;exitY=1;exitDx=0;exitDy=0;entryX=1;entryY=0.5;entryDx=0;entryDy=0;" parent="1" source="4RCNO5_tVw8vB9OJC3BB-61" target="4RCNO5_tVw8vB9OJC3BB-48" edge="1">
          <mxGeometry width="160" relative="1" as="geometry">
            <mxPoint x="911" y="247" as="sourcePoint" />
            <mxPoint x="990" y="247" as="targetPoint" />
            <Array as="points">
              <mxPoint x="1015" y="543" />
            </Array>
          </mxGeometry>
        </mxCell>
        <mxCell id="4RCNO5_tVw8vB9OJC3BB-71" value="&lt;p style=&quot;text-align: center ; margin: 6px 0px 0px ; font-size: 23px&quot;&gt;&lt;b&gt;DTO&lt;/b&gt;&lt;/p&gt;" style="align=left;overflow=fill;html=1;fontSize=15;fillColor=#fff2cc;strokeColor=#d6b656;" parent="1" vertex="1">
          <mxGeometry x="125" y="335.5" width="120" height="50" as="geometry" />
        </mxCell>
        <mxCell id="4RCNO5_tVw8vB9OJC3BB-72" value="" style="shape=component;jettyWidth=8;jettyHeight=4;" parent="4RCNO5_tVw8vB9OJC3BB-71" vertex="1">
          <mxGeometry x="1" width="20" height="20" relative="1" as="geometry">
            <mxPoint x="-24" y="4" as="offset" />
          </mxGeometry>
        </mxCell>
        <mxCell id="4RCNO5_tVw8vB9OJC3BB-73" value="&lt;p style=&quot;margin: 0px ; margin-top: 6px ; text-align: center&quot;&gt;&lt;b&gt;&lt;font style=&quot;line-height: 250% ; font-size: 23px&quot;&gt;Assembler&lt;/font&gt;&lt;/b&gt;&lt;/p&gt;" style="align=left;overflow=fill;html=1;fontSize=14;fillColor=#ffe6cc;strokeColor=#d79b00;" parent="1" vertex="1">
          <mxGeometry x="200" y="197.25" width="130" height="62.5" as="geometry" />
        </mxCell>
        <mxCell id="4RCNO5_tVw8vB9OJC3BB-74" value="" style="shape=component;jettyWidth=8;jettyHeight=4;" parent="4RCNO5_tVw8vB9OJC3BB-73" vertex="1">
          <mxGeometry x="1" width="20" height="20" relative="1" as="geometry">
            <mxPoint x="-24" y="4" as="offset" />
          </mxGeometry>
        </mxCell>
        <mxCell id="4RCNO5_tVw8vB9OJC3BB-75" value="&lt;p style=&quot;text-align: center ; margin: 6px 0px 0px ; font-size: 23px&quot;&gt;&lt;b&gt;Model&lt;/b&gt;&lt;/p&gt;" style="align=left;overflow=fill;html=1;fontSize=15;fillColor=#ffe6cc;strokeColor=#d79b00;" parent="1" vertex="1">
          <mxGeometry x="270" y="335.5" width="120" height="50" as="geometry" />
        </mxCell>
        <mxCell id="4RCNO5_tVw8vB9OJC3BB-76" value="" style="shape=component;jettyWidth=8;jettyHeight=4;" parent="4RCNO5_tVw8vB9OJC3BB-75" vertex="1">
          <mxGeometry x="1" width="20" height="20" relative="1" as="geometry">
            <mxPoint x="-24" y="4" as="offset" />
          </mxGeometry>
        </mxCell>
        <mxCell id="4RCNO5_tVw8vB9OJC3BB-77" value="" style="endArrow=open;endSize=12;dashed=1;html=1;exitX=1;exitY=0.5;exitDx=0;exitDy=0;entryX=0;entryY=0.5;entryDx=0;entryDy=0;" parent="1" source="17" target="4RCNO5_tVw8vB9OJC3BB-58" edge="1">
          <mxGeometry width="160" relative="1" as="geometry">
            <mxPoint x="901" y="237" as="sourcePoint" />
            <mxPoint x="960" y="237" as="targetPoint" />
            <Array as="points" />
          </mxGeometry>
        </mxCell>
        <mxCell id="4RCNO5_tVw8vB9OJC3BB-79" value="" style="endArrow=open;endSize=12;dashed=1;html=1;exitX=0;exitY=0.5;entryX=1;entryY=0.5;entryDx=0;entryDy=0;exitDx=0;exitDy=0;" parent="1" source="17" target="4RCNO5_tVw8vB9OJC3BB-73" edge="1">
          <mxGeometry width="160" relative="1" as="geometry">
            <mxPoint x="530" y="328.5" as="sourcePoint" />
            <mxPoint x="530" y="272" as="targetPoint" />
            <Array as="points" />
          </mxGeometry>
        </mxCell>
        <mxCell id="4RCNO5_tVw8vB9OJC3BB-80" value="" style="endArrow=open;endSize=12;dashed=1;html=1;exitX=0.5;exitY=1;entryX=0.5;entryY=0;entryDx=0;entryDy=0;exitDx=0;exitDy=0;" parent="1" source="4RCNO5_tVw8vB9OJC3BB-73" target="4RCNO5_tVw8vB9OJC3BB-75" edge="1">
          <mxGeometry width="160" relative="1" as="geometry">
            <mxPoint x="540" y="338.5" as="sourcePoint" />
            <mxPoint x="540" y="282" as="targetPoint" />
            <Array as="points" />
          </mxGeometry>
        </mxCell>
        <mxCell id="4RCNO5_tVw8vB9OJC3BB-81" value="" style="endArrow=open;endSize=12;dashed=1;html=1;exitX=0.5;exitY=1;entryX=0.5;entryY=0;entryDx=0;entryDy=0;exitDx=0;exitDy=0;" parent="1" source="4RCNO5_tVw8vB9OJC3BB-73" target="4RCNO5_tVw8vB9OJC3BB-71" edge="1">
          <mxGeometry width="160" relative="1" as="geometry">
            <mxPoint x="335" y="269.75" as="sourcePoint" />
            <mxPoint x="330" y="368" as="targetPoint" />
            <Array as="points" />
          </mxGeometry>
        </mxCell>
        <mxCell id="4RCNO5_tVw8vB9OJC3BB-83" value="" style="endArrow=open;endSize=12;dashed=1;html=1;exitX=0;exitY=0.5;entryX=1;entryY=0.75;entryDx=0;entryDy=0;exitDx=0;exitDy=0;" parent="1" source="19" target="4RCNO5_tVw8vB9OJC3BB-76" edge="1">
          <mxGeometry width="160" relative="1" as="geometry">
            <mxPoint x="530" y="458.5" as="sourcePoint" />
            <mxPoint x="530" y="398.5" as="targetPoint" />
            <Array as="points" />
          </mxGeometry>
        </mxCell>
        <mxCell id="4RCNO5_tVw8vB9OJC3BB-84" value="" style="endArrow=open;endSize=12;dashed=1;html=1;exitX=0;exitY=0.5;entryX=0.45;entryY=1.01;entryDx=0;entryDy=0;exitDx=0;exitDy=0;entryPerimeter=0;" parent="1" source="21" target="4RCNO5_tVw8vB9OJC3BB-75" edge="1">
          <mxGeometry width="160" relative="1" as="geometry">
            <mxPoint x="460" y="363.5" as="sourcePoint" />
            <mxPoint x="396" y="364.5" as="targetPoint" />
            <Array as="points">
              <mxPoint x="324" y="484" />
            </Array>
          </mxGeometry>
        </mxCell>
      </root>
    </mxGraphModel>
  </diagram>
</mxfile>
